<svg xmlns="http://www.w3.org/2000/svg" viewBox="1.76 22.55 860.38 860.38" width="430" height="430" fill="#8B5CF6" role="img" aria-label="NIGHTZUNE"><title>NIGHTZUNE</title><path fill-rule="evenodd" d="M582.61 49.79 575.55 47.23 568.45 44.78 561.31 42.46 554.13 40.27 550.53 39.21 546.91 38.20 539.66 36.25 532.38 34.44 528.72 33.58 525.06 32.75 517.72 31.19 514.03 30.45 506.65 29.09 499.25 27.85 491.82 26.74 488.10 26.23 480.65 25.32 473.18 24.53 469.44 24.19 461.96 23.60 458.21 23.35 454.46 23.14 446.96 22.81 443.21 22.70 435.70 22.57 428.20 22.57 424.44 22.62 420.69 22.70 413.19 22.96 405.69 23.35 401.94 23.60 398.20 23.88 390.72 24.53 386.98 24.91 379.52 25.76 372.08 26.74 364.65 27.85 360.95 28.45 353.55 29.75 349.87 30.45 342.51 31.95 338.84 32.75 335.18 33.58 327.88 35.33 324.24 36.25 316.99 38.20 309.77 40.27 306.17 41.35 299.01 43.60 295.45 44.78 288.35 47.23 281.29 49.79 274.28 52.48 270.80 53.87 263.86 56.75 260.41 58.23 256.98 59.74 250.14 62.86 243.37 66.09 240.00 67.75 236.65 69.44 229.99 72.90 226.68 74.68 220.11 78.32 213.61 82.08 207.18 85.94 203.98 87.92 200.81 89.92 194.51 94.01 188.29 98.21 185.20 100.35 179.09 104.71 176.06 106.93 170.07 111.45 167.10 113.75 161.22 118.42 155.43 123.20 152.56 125.62 149.72 128.07 144.10 133.05 138.56 138.12 135.83 140.69 133.11 143.29 127.76 148.55 125.12 151.22 119.90 156.62 114.78 162.11 112.26 164.89 107.28 170.51 104.83 173.35 100.00 179.11 97.63 182.01 92.96 187.89 88.38 193.85 86.14 196.85 81.73 202.93 77.42 209.08 73.22 215.30 71.16 218.44 67.13 224.77 65.15 227.97 63.21 231.18 59.39 237.64 55.70 244.18 53.89 247.47 50.37 254.10 48.65 257.44 46.96 260.79 43.67 267.54 40.49 274.34 38.95 277.77 37.44 281.20 34.51 288.11 31.69 295.07 30.33 298.57 27.70 305.61 26.44 309.14 23.99 316.24 21.67 323.38 19.48 330.56 17.41 337.78 16.42 341.40 15.46 345.03 13.65 352.31 12.79 355.97 11.16 363.30 10.40 366.97 8.96 374.34 7.66 381.74 7.06 385.44 6.49 389.15 5.44 396.59 4.97 400.31 4.12 407.77 3.74 411.51 3.09 418.99 2.81 422.73 2.35 430.23 2.02 437.73 1.91 441.48 1.78 448.99 1.76 452.74 1.78 456.49 1.91 464.00 2.02 467.75 2.35 475.25 2.81 482.75 3.39 490.09 18.33 474.47 19.41 473.09 20.52 471.85 21.48 470.93 22.25 470.25 23.26 469.08 23.80 468.53 25.25 467.25 26.26 466.08 26.80 465.53 28.25 464.25 29.13 463.23 29.66 462.66 30.36 462.01 31.25 461.25 32.13 460.23 32.66 459.66 33.36 459.01 34.25 458.25 35.30 457.04 35.96 456.35 36.84 455.54 39.07 453.58 40.39 452.54 42.79 450.78 44.84 449.22 47.56 446.98 49.18 445.75 51.69 444.00 55.54 441.49 58.39 439.77 59.83 438.95 62.63 437.44 65.24 435.85 66.91 434.92 69.45 433.60 75.60 430.54 77.78 429.55 79.44 428.85 86.59 426.02 90.41 424.68 95.25 423.16 98.42 421.98 100.19 421.41 102.43 420.79 105.95 419.90 110.33 418.88 114.00 418.16 116.22 417.81 118.36 417.51 119.86 417.18 121.50 416.97 124.00 416.86 124.56 416.80 125.63 416.64 127.78 416.20 129.12 416.02 130.92 415.91 134.40 415.86 136.24 415.78 137.75 415.61 139.78 415.20 140.59 415.08 141.81 414.96 143.03 414.91 147.14 414.90 148.70 414.95 149.84 415.05 150.98 415.20 153.19 415.63 154.33 415.78 155.76 415.86 159.14 415.92 160.35 415.99 161.54 416.12 162.74 416.32 164.11 416.61 164.74 416.72 165.69 416.82 167.33 416.94 168.41 417.08 169.48 417.26 171.80 417.74 175.72 418.29 178.01 418.67 181.43 419.33 184.82 420.10 187.06 420.68 189.29 421.32 194.56 422.95 198.48 424.23 210.51 428.26 212.64 429.08 216.74 430.81 218.01 431.39 220.23 432.45 228.92 436.78 231.24 437.99 232.96 438.92 234.65 439.90 237.28 441.50 238.48 442.16 242.26 444.15 243.61 444.92 245.58 446.12 248.16 447.82 251.58 450.27 253.39 451.52 259.46 455.54 261.99 457.36 267.17 461.43 272.07 465.39 274.87 467.57 276.34 468.81 278.68 470.91 279.84 471.84 281.75 473.25 282.38 473.77 283.51 474.86 284.75 476.25 285.75 477.00 285.75 477.50 286.75 478.00 288.75 479.75 291.67 482.00 292.21 482.48 293.72 484.15 294.51 484.88 295.50 485.75 296.75 487.25 297.77 488.13 298.34 488.66 298.99 489.36 299.75 490.25 301.20 491.53 301.86 492.22 302.75 493.25 303.92 494.26 304.47 494.80 305.75 496.25 306.92 497.26 307.47 497.80 308.75 499.25 310.39 500.68 311.81 502.27 313.75 504.00 313.75 504.50 314.75 505.00 316.75 506.75 317.84 507.58 318.81 508.38 320.03 509.48 320.89 510.37 321.43 510.98 321.95 511.63 322.84 512.87 323.38 513.55 323.96 514.20 324.75 515.00 324.75 515.50 325.50 515.75 326.75 517.25 328.75 519.00 328.75 519.50 329.75 520.00 331.75 521.75 334.67 524.00 335.15 524.42 336.72 526.15 337.51 526.88 338.50 527.75 339.75 529.25 341.20 530.53 341.86 531.22 342.75 532.25 343.92 533.26 344.47 533.80 345.75 535.25 346.92 536.26 347.47 536.80 348.75 538.25 350.50 539.75 351.32 540.54 351.75 541.00 351.75 541.50 352.75 542.00 354.75 543.75 358.10 546.35 358.80 546.94 359.11 547.24 359.41 547.65 359.55 547.94 359.75 548.50 360.75 549.00 362.75 550.75 363.99 551.71 364.95 552.49 367.57 554.81 370.78 557.32 373.15 559.44 374.08 560.21 376.97 562.44 380.14 565.06 386.29 569.88 387.71 570.96 389.53 572.26 393.04 574.61 395.35 576.42 397.04 577.62 410.17 586.26 411.85 587.25 414.42 588.65 416.30 589.71 420.93 592.52 423.18 593.83 426.04 595.37 428.97 596.84 430.41 597.60 431.82 598.41 435.33 600.53 436.96 601.44 438.62 602.31 440.30 603.13 442.85 604.28 444.57 604.99 447.17 605.99 449.98 607.27 451.39 607.87 458.15 610.54 459.37 611.07 461.51 612.06 463.03 612.68 465.75 613.65 473.02 616.09 476.62 617.26 481.81 618.84 485.29 619.83 488.78 620.78 494.04 622.11 497.57 622.93 502.69 624.06 509.16 625.60 511.40 626.08 512.89 626.35 514.39 626.59 515.91 626.77 518.45 626.95 519.14 627.02 520.26 627.22 521.84 627.58 522.89 627.74 524.20 627.84 526.05 627.90 526.78 627.97 527.82 628.14 529.64 628.53 530.78 628.69 531.92 628.79 533.45 628.86 538.13 628.90 539.48 629.09 541.20 629.46 541.94 629.58 543.80 629.78 544.92 629.83 546.43 629.85 580.28 629.85 581.38 629.82 582.82 629.72 583.88 629.59 584.95 629.41 586.51 629.07 587.47 628.95 588.28 628.90 591.81 628.86 592.86 628.81 593.88 628.71 595.24 628.52 597.15 628.13 597.91 628.01 598.85 627.92 600.63 627.85 601.87 627.73 603.38 627.50 604.91 627.17 605.72 627.03 606.52 626.94 608.05 626.84 609.14 626.71 610.48 626.49 612.79 626.01 615.32 625.66 617.59 625.29 623.11 624.19 628.20 623.07 636.30 621.12 640.81 620.13 642.88 619.64 645.98 618.82 649.06 617.91 652.11 616.92 656.85 615.23 658.30 614.78 661.15 613.96 663.75 613.10 667.82 611.55 673.18 609.58 676.90 608.14 679.83 606.91 684.42 604.87 694.41 600.90 697.63 599.52 701.32 597.78 714.71 591.07 717.69 589.41 721.27 587.26 724.92 585.31 727.22 583.96 727.82 583.70 728.41 583.55 729.04 583.48 730.00 583.50 730.17 584.11 730.17 584.27 730.13 584.52 729.89 585.14 729.29 586.10 728.31 587.44 723.63 593.29 721.39 596.15 720.72 596.89 720.02 597.61 718.75 598.75 717.87 599.77 717.34 600.34 716.64 600.99 715.75 601.75 714.87 602.77 714.34 603.34 713.64 603.99 712.75 604.75 711.87 605.77 711.34 606.34 710.64 606.99 709.75 607.75 708.87 608.77 708.34 609.34 707.64 609.99 706.75 610.75 706.08 611.56 705.35 612.33 704.59 613.05 703.79 613.73 701.45 615.58 700.23 616.59 698.00 618.57 697.10 619.32 694.29 621.49 691.00 624.16 686.33 627.64 683.74 629.79 682.79 630.54 681.33 631.61 679.33 632.97 672.46 637.46 668.46 640.11 666.80 641.17 664.28 642.66 661.23 644.41 655.56 647.46 652.76 649.15 651.51 649.86 648.55 651.40 644.09 653.64 642.16 654.57 639.23 655.88 635.72 657.29 634.50 657.88 632.81 658.78 631.49 659.44 630.16 660.04 628.13 660.87 625.38 661.87 620.23 663.60 618.86 664.12 616.07 665.27 613.17 666.36 611.70 666.87 608.75 667.83 605.77 668.73 602.77 669.57 592.06 672.41 585.70 674.17 582.20 675.03 578.67 675.75 576.00 676.18 573.61 676.49 571.14 676.99 567.66 677.48 565.40 677.95 561.78 678.46 560.46 678.76 559.49 678.92 557.87 679.06 554.73 679.14 553.44 679.23 552.18 679.41 550.11 679.83 549.07 679.98 548.02 680.07 546.44 680.13 540.47 680.14 538.25 680.21 537.17 680.35 535.59 680.73 534.70 680.89 533.81 681.00 532.91 681.07 531.10 681.11 523.27 681.09 522.20 681.05 521.66 680.99 520.92 680.85 518.99 680.40 517.93 680.25 516.87 680.16 514.71 680.10 511.50 680.12 507.46 680.10 505.60 680.05 504.70 679.98 503.59 679.81 501.75 679.37 501.10 679.26 500.25 679.18 497.80 679.09 496.09 678.96 494.41 678.71 492.89 678.39 492.26 678.28 491.31 678.18 489.67 678.06 488.86 677.96 487.52 677.74 485.22 677.26 482.65 676.91 480.77 676.60 474.69 675.39 471.05 674.60 465.42 673.29 460.57 672.23 458.63 671.77 455.74 671.02 453.82 670.48 450.96 669.63 444.80 667.62 440.93 666.49 439.36 665.99 437.42 665.31 433.13 663.69 428.26 661.97 425.55 660.98 419.79 658.78 417.66 657.88 415.58 656.91 411.81 655.01 410.15 654.20 408.47 653.46 405.68 652.36 403.83 651.55 401.55 650.46 397.51 648.45 395.03 647.17 392.59 645.83 388.64 643.46 385.75 641.89 384.19 641.00 377.94 637.20 376.37 636.31 374.49 635.30 373.74 634.84 372.78 634.18 371.15 632.92 370.37 632.36 369.03 631.49 366.43 629.91 364.79 628.85 362.80 627.46 360.17 625.55 357.60 623.82 356.58 623.08 354.99 621.82 354.26 621.28 351.08 619.13 349.58 618.06 347.25 616.25 343.69 613.63 341.08 611.58 338.03 609.08 331.56 603.97 329.81 602.53 327.09 600.15 324.23 597.92 323.75 597.50 323.75 597.00 323.25 597.00 323.25 596.50 322.25 596.00 320.25 594.25 317.33 592.00 316.51 591.19 315.25 589.75 314.25 589.00 314.25 588.50 313.25 588.00 311.25 586.25 308.33 584.00 307.85 583.58 306.28 581.85 305.49 581.12 304.50 580.25 303.25 578.75 301.50 577.25 300.56 576.33 300.25 576.00 300.25 575.50 299.25 575.00 297.25 573.25 294.33 571.00 293.85 570.58 292.28 568.85 291.49 568.12 290.50 567.25 289.25 565.75 288.23 564.87 287.66 564.34 287.01 563.64 286.25 562.75 285.23 561.87 284.66 561.34 284.01 560.64 283.25 559.75 282.23 558.87 281.66 558.34 281.01 557.64 280.25 556.75 279.23 555.87 278.66 555.34 278.01 554.64 277.25 553.75 275.80 552.47 275.14 551.78 274.25 550.75 273.08 549.74 272.53 549.20 271.25 547.75 270.08 546.74 269.53 546.20 268.25 544.75 267.23 543.87 266.66 543.34 266.01 542.64 265.25 541.75 264.25 541.00 264.25 540.50 263.25 540.00 261.25 538.25 258.33 536.00 257.92 535.64 256.28 533.85 255.49 533.12 254.50 532.25 253.25 530.75 252.08 529.74 251.53 529.20 250.88 528.50 250.25 527.75 249.25 527.00 249.25 526.50 248.25 526.00 246.25 524.25 242.90 521.65 242.20 521.06 241.89 520.76 241.59 520.35 241.45 520.06 241.25 519.50 240.25 519.00 238.25 517.25 234.46 514.28 230.19 510.81 228.45 509.46 225.11 506.94 223.56 505.82 221.58 504.46 216.98 501.46 214.68 500.03 211.67 498.25 206.28 494.70 204.56 493.65 202.81 492.64 201.03 491.69 199.23 490.79 196.46 489.52 193.94 488.47 192.72 487.92 191.51 487.33 188.55 485.81 187.38 485.27 186.20 484.75 183.80 483.78 180.13 482.47 176.41 481.29 169.96 479.38 166.99 478.46 164.61 477.81 162.21 477.22 159.20 476.56 155.39 475.78 153.32 475.46 151.77 475.29 150.21 475.17 148.10 475.09 147.14 475.00 146.22 474.86 143.96 474.40 143.20 474.31 142.06 474.21 139.76 474.15 127.88 474.15 126.38 474.19 125.28 474.27 124.19 474.40 123.09 474.59 121.59 474.91 121.00 474.99 120.01 475.05 118.80 475.06 116.72 475.18 114.62 475.38 112.49 475.67 110.35 476.04 108.20 476.49 106.05 477.00 103.90 477.58 101.76 478.21 99.63 478.90 97.52 479.63 95.44 480.41 93.39 481.23 91.38 482.07 89.41 482.94 87.50 483.84 85.37 484.88 78.39 488.38 75.58 489.89 72.85 491.48 70.20 493.19 68.47 494.42 67.62 495.06 64.87 497.30 59.95 501.17 57.49 503.28 57.17 503.46 56.75 503.50 56.25 504.50 54.75 505.75 53.87 506.77 53.34 507.34 52.64 507.99 51.75 508.75 51.25 509.50 50.75 509.50 50.25 510.50 48.24 512.79 45.94 515.77 45.75 516.00 45.25 516.00 44.75 517.00 43.90 517.99 43.21 518.87 42.56 519.77 41.78 520.94 40.55 522.83 39.32 524.82 38.14 526.83 37.02 528.88 35.97 530.97 34.48 534.23 32.57 537.93 31.38 540.56 30.84 541.91 29.84 544.64 28.82 547.84 19.09 573.59 20.56 578.52 22.81 585.68 23.99 589.24 26.44 596.34 29.00 603.40 30.33 606.91 33.08 613.89 35.96 620.83 37.44 624.28 40.49 631.14 43.67 637.94 46.96 644.69 48.65 648.04 52.11 654.70 55.70 661.30 59.39 667.84 63.21 674.30 65.15 677.51 69.13 683.88 73.22 690.18 75.31 693.30 79.56 699.49 83.92 705.60 88.38 711.63 90.66 714.62 95.28 720.54 100.00 726.37 102.41 729.26 107.28 734.97 109.76 737.79 114.78 743.37 117.33 746.13 122.50 751.58 127.76 756.93 130.43 759.57 135.83 764.79 141.32 769.91 146.90 774.93 149.72 777.41 155.43 782.28 161.22 787.06 167.10 791.73 170.07 794.03 173.06 796.31 179.09 800.77 185.20 805.13 191.39 809.38 197.65 813.53 200.81 815.56 207.18 819.54 213.61 823.40 216.86 825.30 223.39 828.99 226.68 830.80 233.31 834.32 240.00 837.73 246.75 841.02 250.14 842.62 253.55 844.20 260.41 847.25 267.32 850.18 274.28 853.00 281.29 855.69 284.82 856.99 288.35 858.25 295.45 860.70 299.01 861.88 306.17 864.13 309.77 865.21 316.99 867.28 324.24 869.23 327.88 870.15 335.18 871.90 342.51 873.53 349.87 875.03 353.55 875.73 360.95 877.03 364.65 877.63 372.08 878.74 375.80 879.25 379.52 879.72 386.98 880.57 390.72 880.95 398.20 881.60 405.69 882.13 409.44 882.34 413.19 882.52 420.69 882.78 428.20 882.91 431.95 882.93 435.70 882.91 443.21 882.78 450.71 882.52 454.46 882.34 461.96 881.88 465.70 881.60 473.18 880.95 476.92 880.57 484.38 879.72 491.82 878.74 499.25 877.63 502.95 877.03 510.35 875.73 514.03 875.03 517.72 874.29 525.06 872.73 528.72 871.90 536.02 870.15 539.66 869.23 546.91 867.28 554.13 865.21 557.73 864.13 564.89 861.88 568.45 860.70 575.55 858.25 582.61 855.69 586.12 854.36 589.62 853.00 596.58 850.18 603.49 847.25 610.35 844.20 613.76 842.62 620.53 839.39 627.25 836.04 630.59 834.32 637.22 830.80 640.51 828.99 647.05 825.30 650.29 823.40 656.72 819.54 659.92 817.56 666.25 813.53 672.51 809.38 675.61 807.27 681.76 802.96 684.81 800.77 690.84 796.31 693.83 794.03 696.80 791.73 702.68 787.06 705.58 784.69 711.34 779.86 714.18 777.41 719.80 772.43 722.58 769.91 728.07 764.79 730.79 762.19 736.14 756.93 741.40 751.58 744.00 748.86 749.12 743.37 751.64 740.59 756.62 734.97 759.07 732.13 763.90 726.37 768.62 720.54 773.24 714.62 775.52 711.63 779.98 705.60 782.17 702.55 786.48 696.40 790.68 690.18 792.74 687.04 794.77 683.88 798.75 677.51 802.61 671.08 804.51 667.84 806.37 664.58 810.01 658.01 811.79 654.70 815.25 648.04 816.94 644.69 820.23 637.94 823.41 631.14 826.46 624.28 827.94 620.83 830.82 613.89 832.21 610.41 834.90 603.40 836.20 599.87 837.46 596.34 839.91 589.24 841.09 585.68 843.34 578.52 845.48 571.32 846.49 567.70 848.44 560.45 850.25 553.17 851.94 545.85 853.50 538.51 854.24 534.82 855.60 527.44 856.84 520.04 857.41 516.33 857.95 512.61 858.93 505.17 859.37 501.44 860.16 493.97 860.50 490.23 861.09 482.75 861.55 475.25 861.88 467.75 861.99 464.00 862.12 456.49 862.12 448.99 862.07 445.23 861.99 441.48 861.73 433.98 861.55 430.23 861.09 422.73 860.50 415.25 860.07 410.66 858.38 414.97 856.61 419.23 854.77 423.47 852.85 427.67 850.87 431.84 848.81 435.97 846.67 440.06 844.47 444.12 843.34 446.14 841.04 450.13 838.66 454.09 836.21 458.01 833.70 461.88 831.11 465.71 828.47 469.49 825.75 473.22 822.97 476.91 820.13 480.55 817.23 484.14 814.26 487.67 811.23 491.16 809.69 492.88 806.57 496.29 803.39 499.63 800.16 502.93 796.86 506.16 793.52 509.34 790.11 512.46 786.65 515.52 783.14 518.52 781.37 520.00 777.78 522.90 774.14 525.74 770.45 528.52 766.72 531.24 762.94 533.88 759.11 536.47 755.24 538.98 751.32 541.43 747.36 543.81 745.37 544.97 741.35 547.24 737.29 549.44 733.20 551.58 729.07 553.64 724.90 555.62 720.70 557.54 716.46 559.38 712.20 561.15 707.90 562.84 705.74 563.66 701.41 565.24 697.04 566.74 692.65 568.17 688.23 569.52 683.80 570.79 679.34 571.98 674.86 573.10 670.36 574.14 665.84 575.10 661.31 575.98 656.76 576.78 652.20 577.50 647.63 578.15 643.05 578.71 638.46 579.19 633.86 579.59 629.25 579.92 624.64 580.16 622.33 580.25 617.72 580.37 613.10 580.41 608.48 580.37 606.18 580.32 601.56 580.16 596.95 579.92 592.34 579.59 587.74 579.19 583.15 578.71 578.57 578.15 576.28 577.84 571.72 577.15 567.16 576.39 562.62 575.55 558.10 574.63 553.59 573.63 549.10 572.55 544.63 571.40 540.18 570.16 535.76 568.85 531.35 567.46 526.97 566.00 522.62 564.46 518.30 562.84 514.00 561.15 509.74 559.38 507.61 558.47 503.40 556.59 499.21 554.64 495.06 552.62 490.95 550.52 486.87 548.35 482.83 546.11 478.84 543.81 474.88 541.43 470.96 538.98 467.09 536.47 463.26 533.88 459.48 531.24 457.61 529.89 453.90 527.14 450.23 524.33 446.62 521.46 443.06 518.52 439.55 515.52 436.09 512.46 432.68 509.34 429.34 506.16 426.04 502.93 422.81 499.63 419.63 496.29 418.06 494.59 414.97 491.16 411.94 487.67 408.97 484.14 406.07 480.55 404.64 478.74 401.83 475.07 399.08 471.36 396.40 467.60 393.79 463.80 391.24 459.95 388.76 456.05 386.34 452.12 384.00 448.14 381.73 444.12 379.53 440.06 377.39 435.97 375.33 431.84 373.35 427.67 371.43 423.47 369.59 419.23 368.70 417.11 366.97 412.82 366.13 410.67 364.51 406.35 362.97 402.00 362.23 399.81 360.80 395.42 360.12 393.21 358.81 388.79 358.18 386.57 357.57 384.34 356.42 379.87 355.34 375.38 354.34 370.87 353.42 366.35 352.99 364.08 352.19 359.53 351.47 354.97 350.82 350.40 350.26 345.82 349.78 341.23 349.57 338.93 349.20 334.32 349.05 332.02 348.81 327.41 348.65 322.79 348.57 318.18 348.56 315.87 348.57 313.56 348.65 308.95 348.81 304.33 349.05 299.72 349.20 297.42 349.57 292.81 349.78 290.51 350.26 285.92 350.82 281.34 351.13 279.05 351.82 274.49 352.19 272.21 352.99 267.66 353.87 263.13 354.83 258.61 355.87 254.11 356.42 251.87 357.57 247.40 358.81 242.95 360.12 238.53 360.80 236.32 362.23 231.93 362.97 229.74 364.51 225.39 366.13 221.07 367.82 216.77 368.70 214.63 370.50 210.38 372.38 206.17 373.35 204.07 375.33 199.90 377.39 195.77 379.53 191.68 380.62 189.64 381.73 187.62 384.00 183.60 386.34 179.62 387.54 177.65 389.99 173.73 392.50 169.86 395.09 166.03 396.40 164.14 397.73 162.25 400.45 158.52 403.23 154.83 406.07 151.19 407.51 149.39 410.45 145.83 413.45 142.32 414.97 140.58 418.06 137.15 421.21 133.77 424.42 130.45 426.04 128.81 429.34 125.58 431.00 123.98 432.68 122.40 436.09 119.28 437.81 117.74 441.30 114.71 443.06 113.22 446.62 110.28 450.23 107.41 453.90 104.60 457.61 101.85 459.48 100.50 463.26 97.86 467.09 95.27 469.02 94.01 472.92 91.53 476.85 89.11 480.83 86.77 484.85 84.50 488.91 82.30 493.00 80.16 497.13 78.10 501.30 76.12 505.50 74.20 509.74 72.36 511.86 71.47 516.15 69.74 520.46 68.08 524.79 66.50 529.16 65.00 533.55 63.57 537.97 62.22 542.40 60.95 546.86 59.76 549.10 59.19 553.59 58.11 558.10 57.11 562.62 56.19 567.16 55.35 571.72 54.59 576.28 53.90 580.86 53.30 585.45 52.78 589.39 52.40Z"/></svg>
